<?xml version="1.0" encoding="utf-8"?>
<!-- Generator: Adobe Illustrator 16.0.0, SVG Export Plug-In . SVG Version: 6.00 Build 0)  -->
<!DOCTYPE svg PUBLIC "-//W3C//DTD SVG 1.1//EN" "http://www.w3.org/Graphics/SVG/1.1/DTD/svg11.dtd">
<svg version="1.1" id="Layer_1" xmlns="http://www.w3.org/2000/svg" xmlns:xlink="http://www.w3.org/1999/xlink" x="0px" y="0px"
	 width="425.197px" height="425.197px" viewBox="0 0 425 425" enable-background="new 0 0 425.197 425.197"
	 xml:space="preserve">
<g>
	<g>
		<g>
			<path fill="#005321" d="M113.004,267.259c-0.578,3.125-2.008,5.585-4.289,7.351c-2.275,1.79-5.059,2.676-8.341,2.676
				c-2.321,0-4.3-0.37-5.938-1.103c-1.644-0.742-2.975-1.728-3.997-2.978c-1.03-1.265-1.777-2.716-2.268-4.381
				c-0.479-1.659-0.721-3.409-0.721-5.206v-14.377c0-1.512,0.231-3.024,0.697-4.551c0.463-1.528,1.208-2.908,2.226-4.142
				c1.026-1.226,2.365-2.252,4.004-3.046c1.639-0.788,3.636-1.181,5.997-1.181c1.852,0,3.513,0.286,4.982,0.833
				c1.466,0.563,2.723,1.304,3.764,2.229c1.042,0.934,1.893,2.005,2.553,3.224c0.655,1.211,1.119,2.476,1.388,3.787l-7.937,2.384
				c-0.077-0.386-0.208-0.84-0.378-1.366c-0.179-0.516-0.455-1.002-0.837-1.419c-0.389-0.432-0.875-0.786-1.454-1.102
				c-0.579-0.31-1.273-0.463-2.083-0.463c-0.849,0-1.566,0.147-2.144,0.433c-0.579,0.301-1.046,0.663-1.392,1.103
				c-0.348,0.44-0.603,0.934-0.753,1.45c-0.154,0.525-0.231,1.011-0.231,1.474v14.956c0,1.542,0.334,2.822,1.01,3.817
				c0.679,1.01,1.847,1.512,3.51,1.512c1.16,0,2.183-0.378,3.07-1.134c0.886-0.748,1.411-1.774,1.564-3.101L113.004,267.259z"/>
			<path fill="#005321" d="M144.874,264.652c0,1.967-0.292,3.718-0.87,5.245c-0.583,1.52-1.39,2.808-2.435,3.856
				c-1.045,1.042-2.299,1.837-3.764,2.368c-1.464,0.548-3.089,0.81-4.87,0.81h-13.614v-40.323h13.035
				c3.938,0,6.934,1.002,8.982,3.009c2.052,2.012,3.073,4.789,3.073,8.344c0,1.513-0.37,3.009-1.098,4.498
				c-0.746,1.488-1.955,2.576-3.653,3.271v0.293c0.926,0.308,1.716,0.771,2.376,1.379c0.655,0.618,1.195,1.335,1.618,2.129
				c0.425,0.788,0.733,1.628,0.927,2.515C144.774,262.94,144.874,263.804,144.874,264.652z M136.181,248.254
				c0-1.35-0.326-2.352-0.986-3.016c-0.655-0.657-1.774-0.979-3.359-0.979h-4.111v8.168h4.165c1.55,0,2.65-0.387,3.306-1.157
				C135.855,250.499,136.181,249.488,136.181,248.254z M136.707,264.189c0-1.358-0.338-2.429-1.017-3.247
				c-0.675-0.802-1.772-1.219-3.271-1.219h-4.693v9.279h4.631c1.663,0,2.8-0.463,3.417-1.396
				C136.393,266.682,136.707,265.539,136.707,264.189z"/>
			<path fill="#005321" d="M151.886,276.931v-40.323h23.462v7.76h-15.06v8.345h12.977v7.706h-12.977v8.584h15.06v7.928H151.886z"/>
			<path fill="#005321" d="M187.631,255.96c-1.118-0.494-2.149-1.357-3.096-2.576c-0.951-1.219-1.635-2.77-2.06-4.667l-3.012-11.994
				h8.057l2.662,10.605c0.543,2.16,1.333,3.634,2.378,4.405c1.042,0.771,2.121,1.157,3.244,1.157h2.143v-16.336h8.4v16.336h2.086
				c0.544,0,1.093-0.084,1.655-0.263c0.56-0.169,1.08-0.471,1.559-0.894c0.49-0.417,0.938-0.996,1.36-1.705
				c0.428-0.718,0.77-1.619,1.042-2.7l2.714-10.605h8.056l-3.073,11.994c-0.425,1.897-1.1,3.448-2.028,4.667
				c-0.926,1.219-1.973,2.083-3.124,2.576l0.054,0.231c1.47,0.548,2.638,1.419,3.506,2.637c0.871,1.227,1.534,2.793,2.002,4.729
				l3.301,13.374h-8.461l-2.6-10.882c-0.573-2.129-1.298-3.626-2.17-4.497c-0.864-0.864-2.029-1.304-3.502-1.304h-2.375v16.683h-8.4
				v-16.683h-2.375c-1.469,0-2.646,0.44-3.536,1.304c-0.887,0.871-1.602,2.367-2.142,4.497l-2.61,10.882h-8.514l3.3-13.374
				c0.459-1.936,1.133-3.502,1.997-4.729c0.869-1.218,2.041-2.089,3.506-2.637L187.631,255.96z"/>
			<path fill="#005321" d="M231.017,276.931v-40.323h23.465v7.76H239.42v8.345h12.976v7.706H239.42v8.584h15.062v7.928H231.017z"/>
			<path fill="#005321" d="M285.193,267.259c-0.579,3.125-2.009,5.585-4.286,7.351c-2.277,1.79-5.058,2.676-8.348,2.676
				c-2.31,0-4.292-0.37-5.937-1.103c-1.642-0.742-2.976-1.728-3.999-2.978c-1.021-1.265-1.776-2.716-2.259-4.381
				c-0.482-1.659-0.727-3.409-0.727-5.206v-14.377c0-1.512,0.232-3.024,0.696-4.551c0.467-1.528,1.207-2.908,2.232-4.142
				c1.025-1.226,2.355-2.252,3.999-3.046c1.647-0.788,3.637-1.181,5.993-1.181c1.857,0,3.517,0.286,4.985,0.833
				c1.472,0.563,2.728,1.304,3.769,2.229c1.046,0.934,1.894,2.005,2.55,3.224c0.651,1.211,1.117,2.476,1.388,3.787l-7.941,2.384
				c-0.076-0.386-0.196-0.84-0.373-1.366c-0.174-0.516-0.451-1.002-0.838-1.419c-0.388-0.432-0.866-0.786-1.45-1.102
				c-0.578-0.31-1.276-0.463-2.089-0.463c-0.85,0-1.562,0.147-2.14,0.433c-0.583,0.301-1.046,0.663-1.394,1.103
				c-0.343,0.44-0.598,0.934-0.752,1.45c-0.154,0.525-0.231,1.011-0.231,1.474v14.956c0,1.542,0.335,2.822,1.014,3.817
				c0.675,1.01,1.844,1.512,3.503,1.512c1.163,0,2.186-0.378,3.072-1.134c0.891-0.748,1.413-1.774,1.565-3.101L285.193,267.259z"/>
			<path fill="#005321" d="M305.301,244.259v32.672h-8.346v-32.672h-8.631v-7.651h25.611v7.651H305.301z"/>
			<path fill="#005321" d="M345.219,264.074c0,2.128-0.31,3.996-0.921,5.592c-0.622,1.596-1.481,2.946-2.585,4.025
				c-1.101,1.071-2.43,1.898-3.994,2.429c-1.563,0.548-3.294,0.81-5.184,0.81h-13.329v-40.323h8.404v15.126h5.099
				c2.124,0,3.976,0.307,5.561,0.933c1.585,0.601,2.888,1.458,3.91,2.539c1.022,1.079,1.79,2.39,2.292,3.91
				C344.973,260.642,345.219,262.3,345.219,264.074z M336.878,264.251c0-1.744-0.418-2.954-1.247-3.648
				c-0.829-0.703-1.981-1.049-3.447-1.049h-4.631v9.618h4.688c1.547,0,2.703-0.455,3.476-1.366
				C336.492,266.904,336.878,265.724,336.878,264.251z"/>
		</g>
		<g>
			<path fill="#005321" d="M172.919,322.43c0.25,1.426,0.868,2.467,1.852,3.107c0.982,0.656,2.125,0.979,3.428,0.979
				c1.338,0,2.525-0.439,3.552-1.318c1.023-0.888,1.539-2.144,1.539-3.772c0-1.589-0.475-2.893-1.415-3.927
				c-0.945-1.024-2.423-1.542-4.435-1.542h-3.764v-7.232h3.895c2.009,0,3.427-0.479,4.269-1.443
				c0.844-0.965,1.261-2.051,1.261-3.264c0-1.306-0.486-2.381-1.446-3.247c-0.967-0.856-2.117-1.289-3.456-1.289
				c-0.967,0-1.932,0.316-2.891,0.972c-0.97,0.658-1.598,1.863-1.887,3.625l-8.862-1.576c0.377-1.885,1.019-3.554,1.916-5.006
				c0.899-1.452,1.978-2.653,3.239-3.65c1.255-0.987,2.635-1.728,4.147-2.251c1.511-0.524,3.075-0.794,4.712-0.794
				c2.472,0,4.62,0.355,6.439,1.041c1.829,0.687,3.322,1.613,4.498,2.754c1.168,1.165,2.039,2.508,2.602,4.037
				c0.571,1.53,0.854,3.129,0.854,4.814c0,0.718-0.14,1.513-0.41,2.394c-0.274,0.879-0.659,1.728-1.166,2.545
				c-0.5,0.817-1.109,1.589-1.819,2.291c-0.713,0.716-1.531,1.266-2.449,1.643c1.045,0.455,1.955,1.041,2.729,1.752
				c0.776,0.715,1.415,1.488,1.922,2.328c0.501,0.849,0.863,1.705,1.098,2.615c0.228,0.895,0.343,1.743,0.343,2.546
				c0,2.005-0.351,3.847-1.068,5.53c-0.714,1.666-1.709,3.106-2.984,4.296c-1.281,1.202-2.825,2.13-4.652,2.8
				c-1.82,0.669-3.845,1.002-6.066,1.002c-1.55,0-3.088-0.209-4.617-0.623c-1.53-0.418-2.958-1.097-4.273-2.016
				c-1.322-0.923-2.472-2.106-3.455-3.547c-0.987-1.45-1.688-3.217-2.108-5.308L172.919,322.43z"/>
			<path fill="#005321" d="M226.446,320.739c0,2.547-0.415,4.746-1.256,6.565c-0.839,1.82-1.948,3.316-3.333,4.488
				c-1.384,1.171-2.938,2.034-4.682,2.584c-1.729,0.546-3.501,0.81-5.293,0.81c-1.721,0-3.391-0.301-5.026-0.909
				c-1.639-0.61-3.092-1.489-4.373-2.671c-1.276-1.171-2.301-2.613-3.076-4.335c-0.772-1.713-1.162-3.693-1.162-5.907
				c0-1.341,0.146-2.637,0.44-3.901c0.292-1.251,0.732-2.445,1.322-3.571l12.13-22.776h10.347l-9.1,17.175l0.062,0.132
				c2.007-0.224,3.813-0.046,5.425,0.494c1.616,0.547,2.985,1.372,4.12,2.483c1.129,1.117,1.985,2.475,2.573,4.087
				C226.149,317.1,226.446,318.85,226.446,320.739z M216.959,321.241c0-1.897-0.475-3.256-1.412-4.088
				c-0.94-0.841-2.054-1.25-3.354-1.25c-1.252,0-2.352,0.409-3.296,1.25c-0.941,0.832-1.417,2.19-1.417,4.088
				c0,1.882,0.429,3.232,1.289,4.05c0.859,0.817,2.004,1.226,3.423,1.226c0.539,0,1.099-0.1,1.662-0.279
				c0.563-0.188,1.08-0.508,1.537-0.946c0.459-0.44,0.832-0.987,1.129-1.637C216.808,323.009,216.959,322.206,216.959,321.241z"/>
			<path fill="#005321" d="M240.588,322.051c0.247,1.759,0.818,2.946,1.695,3.557c0.877,0.603,1.926,0.909,3.141,0.909
				c1.049,0,1.898-0.23,2.549-0.693c0.647-0.464,1.153-1.05,1.501-1.761c0.358-0.716,0.602-1.494,0.728-2.352
				c0.123-0.862,0.189-1.711,0.189-2.545c0-0.886-0.073-1.728-0.219-2.545c-0.151-0.825-0.414-1.542-0.788-2.168
				c-0.376-0.632-0.887-1.133-1.538-1.48c-0.651-0.354-1.457-0.531-2.422-0.531c-0.709,0-1.507,0.271-2.387,0.817
				c-0.876,0.548-1.611,1.481-2.202,2.822h-8.42v-24.965h26.021v8.49h-17.158v6.804c0.838-0.716,1.897-1.249,3.177-1.612
				c1.278-0.355,2.416-0.526,3.423-0.526c2.221,0,4.079,0.341,5.591,1.036c1.514,0.687,2.728,1.651,3.644,2.885
				c0.924,1.241,1.606,2.708,2.045,4.403c0.44,1.698,0.703,3.557,0.787,5.568c0,2.638-0.293,5.007-0.883,7.097
				c-0.587,2.097-1.473,3.872-2.669,5.339c-1.196,1.474-2.681,2.605-4.462,3.392c-1.781,0.803-3.869,1.196-6.252,1.196
				c-1.469,0-2.953-0.17-4.461-0.501s-2.927-0.927-4.247-1.768c-1.318-0.833-2.467-1.99-3.455-3.478
				c-0.987-1.488-1.666-3.386-2.036-5.693L240.588,322.051z"/>
		</g>
	</g>
	
	<path fill="#92C020" d="M213.963,387.411c-95.822,0-173.778-77.979-173.778-173.804c0-95.819,77.957-173.774,173.778-173.774
		c95.814,0,173.773,77.956,173.773,173.774C387.737,309.433,309.778,387.411,213.963,387.411z M213.963,63.218
		c-82.93,0-150.391,67.466-150.391,150.389c0,82.931,67.461,150.41,150.391,150.41c82.907,0,150.388-67.479,150.388-150.41
		C364.351,130.685,296.871,63.218,213.963,63.218z"/>
</g>
</svg>
