<?xml version="1.0" encoding="utf-8"?>
<!-- Generator: Adobe Illustrator 19.1.0, SVG Export Plug-In . SVG Version: 6.00 Build 0)  -->
<svg version="1.1" id="Layer_1" xmlns="http://www.w3.org/2000/svg" xmlns:xlink="http://www.w3.org/1999/xlink" x="0px" y="0px"
	 viewBox="0 0 113.3 93.4" style="enable-background:new 0 0 113.3 93.4;" xml:space="preserve">
<style type="text/css">
	.st0{fill-rule:evenodd;clip-rule:evenodd;fill:url(#SVGID_1_);}
	.st1{fill-rule:evenodd;clip-rule:evenodd;fill:url(#SVGID_2_);}
	.st2{fill-rule:evenodd;clip-rule:evenodd;fill:url(#SVGID_3_);}
	.st3{fill-rule:evenodd;clip-rule:evenodd;fill:url(#SVGID_4_);}
	.st4{fill-rule:evenodd;clip-rule:evenodd;fill:url(#SVGID_5_);}
	.st5{fill-rule:evenodd;clip-rule:evenodd;fill:url(#SVGID_6_);}
</style>
<g>
	<linearGradient id="SVGID_1_" gradientUnits="userSpaceOnUse" x1="68.1894" y1="92.5015" x2="104.3115" y2="-0.9547">
		<stop  offset="0" style="stop-color:#58853C"/>
		<stop  offset="0.2126" style="stop-color:#7A9C3B"/>
		<stop  offset="0.3919" style="stop-color:#92AD39"/>
		<stop  offset="0.503" style="stop-color:#9BB438"/>
		<stop  offset="0.5806" style="stop-color:#91AB38"/>
		<stop  offset="0.7018" style="stop-color:#789337"/>
		<stop  offset="0.8509" style="stop-color:#567333"/>
		<stop  offset="1" style="stop-color:#35522C"/>
	</linearGradient>
	<path class="st0" d="M57,93.1c0,0-8.4-67.5,56.4-93.1C113.5,47.8,100.7,82.5,57,93.1z"/>
	<linearGradient id="SVGID_2_" gradientUnits="userSpaceOnUse" x1="77.97" y1="45.57" x2="104.9101" y2="49.2192">
		<stop  offset="0" style="stop-color:#A2C037"/>
		<stop  offset="0.1601" style="stop-color:#9AB837"/>
		<stop  offset="0.3709" style="stop-color:#86A437"/>
		<stop  offset="0.6102" style="stop-color:#688635"/>
		<stop  offset="0.8686" style="stop-color:#466330"/>
		<stop  offset="1" style="stop-color:#36522C"/>
	</linearGradient>
	<path class="st1" d="M57,93.1c0,0,29.4-63.2,56.4-93.1C113.5,47.8,100.7,82.5,57,93.1z"/>
	<linearGradient id="SVGID_3_" gradientUnits="userSpaceOnUse" x1="56.9826" y1="46.5437" x2="113.3348" y2="46.5437">
		<stop  offset="0" style="stop-color:#FFFFFF;stop-opacity:0"/>
		<stop  offset="0.5273" style="stop-color:#FFFFFF"/>
		<stop  offset="1" style="stop-color:#FFFFFF;stop-opacity:0.2"/>
	</linearGradient>
	<path class="st2" d="M113.3,0.9c0-0.3,0-0.6,0-0.9C86.4,29.9,57,93.1,57,93.1c0.2-0.1,0.5-0.1,0.7-0.2
		C66.4,75.4,90.6,28.9,113.3,0.9z"/>
	<linearGradient id="SVGID_4_" gradientUnits="userSpaceOnUse" x1="50.6215" y1="92.763" x2="4.2957" y2="32.6196">
		<stop  offset="0" style="stop-color:#58853C"/>
		<stop  offset="0.2126" style="stop-color:#7A9C3B"/>
		<stop  offset="0.3919" style="stop-color:#92AD39"/>
		<stop  offset="0.503" style="stop-color:#9BB438"/>
		<stop  offset="0.5805" style="stop-color:#91AB38"/>
		<stop  offset="0.7017" style="stop-color:#789337"/>
		<stop  offset="0.8508" style="stop-color:#567333"/>
		<stop  offset="1" style="stop-color:#36522C"/>
	</linearGradient>
	<path class="st3" d="M52.6,93.4c0,0-49.4-9.5-52.6-60.9C33.7,43.3,55.1,60.2,52.6,93.4z"/>
	<linearGradient id="SVGID_5_" gradientUnits="userSpaceOnUse" x1="-2.9668" y1="62.9108" x2="37.1871" y2="62.9108">
		<stop  offset="0" style="stop-color:#35522C"/>
		<stop  offset="0.1311" style="stop-color:#466330"/>
		<stop  offset="0.3895" style="stop-color:#688535"/>
		<stop  offset="0.6289" style="stop-color:#86A237"/>
		<stop  offset="0.8399" style="stop-color:#9BB637"/>
		<stop  offset="1" style="stop-color:#A2BD37"/>
	</linearGradient>
	<path class="st4" d="M52.6,93.4c0,0-49.4-9.5-52.6-60.9C27.9,51.7,42.8,70.8,52.6,93.4z"/>
	<linearGradient id="SVGID_6_" gradientUnits="userSpaceOnUse" x1="3.4853" y1="32.9077" x2="53.2137" y2="89.3941">
		<stop  offset="0" style="stop-color:#FFFFFF;stop-opacity:0"/>
		<stop  offset="0.5273" style="stop-color:#FFFFFF"/>
		<stop  offset="1" style="stop-color:#FFFFFF;stop-opacity:0.2"/>
	</linearGradient>
	<path class="st5" d="M52.4,93.3c0.1,0,0.2,0,0.2,0C42.8,70.8,27.9,51.7,0,32.4C0,32.5,38.6,60.5,52.4,93.3z"/>
</g>
</svg>
